<svg xmlns="http://www.w3.org/2000/svg" viewBox="0 0 100 100"><g><path d="M90.6,19.7H9.4c-3.8,0-6.9,3.1-6.9,6.9v46.9c0,3.8,3.1,6.9,6.9,6.9h81.2c3.8,0,6.9-3.1,6.9-6.9V26.6C97.5,22.7,94.4,19.7,90.6,19.7z M48.3,47.7l-6.6,5.7c-0.6,0.5-0.9,1.3-0.7,2.1l2,8.5c0.4,1.8-1.6,3.3-3.2,2.3l-7.4-4.5c-0.7-0.4-1.5-0.4-2.2,0l-7.4,4.5c-1.6,1-3.6-0.5-3.2-2.3l2-8.5c0.2-0.8-0.1-1.6-0.7-2.1l-6.6-5.7c-1.4-1.2-0.7-3.6,1.2-3.7l8.7-0.7c0.8-0.1,1.5-0.6,1.8-1.3l3.4-8c0.7-1.7,3.2-1.7,3.9,0l3.4,8c0.3,0.7,1,1.2,1.8,1.3l8.7,0.7C49,44.1,49.7,46.4,48.3,47.7zM82.5,67.9H58.4c-1.5,0-2.7-1.2-2.7-2.7s1.2-2.7,2.7-2.7h24.1c1.5,0,2.7,1.2,2.7,2.7S84,67.9,82.5,67.9z M82.5,52.7H58.4c-1.5,0-2.7-1.2-2.7-2.7c0-1.5,1.2-2.7,2.7-2.7h24.1c1.5,0,2.7,1.2,2.7,2.7C85.3,51.5,84,52.7,82.5,52.7z M82.5,37.6H58.4c-1.5,0-2.7-1.2-2.7-2.7s1.2-2.7,2.7-2.7h24.1c1.5,0,2.7,1.2,2.7,2.7S84,37.6,82.5,37.6z" fill="#D2042D"/></g></svg>
